<svg width="489" height="714" viewBox="0 0 489 714" fill="none" xmlns="http://www.w3.org/2000/svg">
<path d="M488.249 253.706C490.384 116.247 381.683 0 244.209 0C106.734 0 -4.93028 116.325 0.167911 253.706C1.60611 292.461 9.99404 314.076 23.9323 349.994L24.2767 350.881C44.325 402.548 95.0451 464.108 121.865 494.519C132.688 506.79 148.355 513.452 164.717 513.452H318.939C333.823 513.452 348.163 507.969 358.752 497.509C386.039 470.555 439.303 414.03 460.626 364.089C478.075 323.221 487.559 298.137 488.249 253.706Z" fill="#FFD500"/>
<rect x="128.062" y="523.117" width="229.543" height="48.3249" rx="24.1624" fill="#D9D9D9"/>
<rect x="137.724" y="581.107" width="212.629" height="48.3249" rx="24.1624" fill="#D9D9D9"/>
<path d="M210.215 644.096C210.215 641.335 212.454 639.096 215.215 639.096H272.87C275.631 639.096 277.87 641.335 277.87 644.096V686.97C277.87 687.27 277.846 687.554 277.78 687.846C277.01 691.254 270.865 714 244.042 714C218.584 714 211.38 691.69 210.352 687.95C210.253 687.591 210.215 687.233 210.215 686.86V644.096Z" fill="#D9D9D9"/>
<path d="M316.527 639.096H171.552C158.208 639.096 147.39 649.914 147.39 663.259C147.39 676.603 158.208 687.421 171.552 687.421H316.527C329.871 687.421 340.689 676.603 340.689 663.259C340.689 649.914 329.871 639.096 316.527 639.096Z" fill="#D9D9D9"/>
<ellipse cx="174.89" cy="203.771" rx="48.1348" ry="48.1348" fill="black"/>
<ellipse cx="312.074" cy="203.771" rx="48.1348" ry="48.1348" fill="black"/>
</svg>
